<svg id="icon3" xmlns="http://www.w3.org/2000/svg" width="65.66" height="65.66" viewBox="0 0 65.66 65.66">
  <path id="Path_61" data-name="Path 61" d="M5.969,0H59.691A5.969,5.969,0,0,1,65.66,5.969V59.691a5.969,5.969,0,0,1-5.969,5.969H5.969A5.969,5.969,0,0,1,0,59.691V5.969A5.969,5.969,0,0,1,5.969,0Z" fill="#f2edf9"/>
  <g id="Group_82" data-name="Group 82" transform="translate(20.892 11.939)">
    <path id="Path_62" data-name="Path 62" d="M152.322,85.337h20.892a2.985,2.985,0,0,1,2.985,2.985v8.954a2.985,2.985,0,0,1-2.985,2.985H152.322a2.985,2.985,0,0,1-2.985-2.985V88.322A2.985,2.985,0,0,1,152.322,85.337Z" transform="translate(-149.337 -85.337)" fill="#f25022"/>
    <path id="Path_63" data-name="Path 63" d="M152.322,277.337h20.892a2.985,2.985,0,0,1,2.985,2.984v8.954a2.984,2.984,0,0,1-2.985,2.984H152.322a2.984,2.984,0,0,1-2.985-2.984v-8.954A2.985,2.985,0,0,1,152.322,277.337Z" transform="translate(-149.337 -250.476)" fill="#f7b236"/>
  </g>
  <g id="Group_83" data-name="Group 83" transform="translate(5.969 5.969)">
    <path id="Path_64" data-name="Path 64" d="M150.829,213.337h11.939a1.492,1.492,0,0,1,1.492,1.492h0a1.492,1.492,0,0,1-1.492,1.492H150.829a1.492,1.492,0,0,1-1.492-1.492h0A1.492,1.492,0,0,1,150.829,213.337Z" transform="translate(-134.414 -189.46)" fill="#5628b4"/>
    <path id="Path_65" data-name="Path 65" d="M278.829,213.337H284.8a1.492,1.492,0,0,1,1.492,1.492h0a1.492,1.492,0,0,1-1.492,1.492h-5.969a1.492,1.492,0,0,1-1.492-1.492h0A1.492,1.492,0,0,1,278.829,213.337Z" transform="translate(-244.506 -189.46)" fill="#5628b4"/>
    <path id="Path_66" data-name="Path 66" d="M150.829,405.337h2.985a1.492,1.492,0,0,1,1.492,1.492h0a1.492,1.492,0,0,1-1.492,1.492h-2.985a1.492,1.492,0,0,1-1.492-1.492h0A1.492,1.492,0,0,1,150.829,405.337Z" transform="translate(-134.414 -354.599)" fill="#5628b4"/>
    <path id="Path_67" data-name="Path 67" d="M214.829,405.337h14.923a1.492,1.492,0,0,1,1.492,1.492h0a1.492,1.492,0,0,1-1.492,1.492H214.829a1.492,1.492,0,0,1-1.492-1.492h0A1.492,1.492,0,0,1,214.829,405.337Z" transform="translate(-189.46 -354.599)" fill="#5628b4"/>
    <path id="Path_68" data-name="Path 68" d="M44.159,42.667h8.953A1.492,1.492,0,0,1,54.6,44.159h0a1.492,1.492,0,0,1-1.492,1.492H44.159a1.492,1.492,0,0,1-1.492-1.492h0A1.492,1.492,0,0,1,44.159,42.667Z" transform="translate(-42.667 -42.667)" fill="#5628b4"/>
  </g>
  <g id="Group_84" data-name="Group 84" transform="translate(5.969 23.877)">
    <path id="Path_69" data-name="Path 69" d="M44.159,170.667h5.969a1.492,1.492,0,0,1,1.492,1.492h0a1.492,1.492,0,0,1-1.492,1.492H44.159a1.492,1.492,0,0,1-1.492-1.492h0A1.492,1.492,0,0,1,44.159,170.667Z" transform="translate(-42.667 -170.667)" fill="#815ec7"/>
    <path id="Path_70" data-name="Path 70" d="M44.159,213.337h2.985a1.492,1.492,0,0,1,1.492,1.492h0a1.492,1.492,0,0,1-1.492,1.492H44.159a1.492,1.492,0,0,1-1.492-1.492h0A1.492,1.492,0,0,1,44.159,213.337Z" transform="translate(-42.667 -207.367)" fill="#815ec7"/>
  </g>
  <g id="Group_85" data-name="Group 85" transform="translate(35.814 5.969)">
    <path id="Path_71" data-name="Path 71" d="M321.489,42.667h2.985a1.492,1.492,0,0,1,1.492,1.492h0a1.492,1.492,0,0,1-1.492,1.492h-2.985A1.492,1.492,0,0,1,320,44.159h0A1.492,1.492,0,0,1,321.489,42.667Z" transform="translate(-311.043 -42.667)" fill="#5628b4"/>
    <path id="Path_72" data-name="Path 72" d="M257.489,42.667h2.984a1.492,1.492,0,0,1,1.492,1.492h0a1.492,1.492,0,0,1-1.492,1.492h-2.984A1.492,1.492,0,0,1,256,44.159h0A1.492,1.492,0,0,1,257.489,42.667Z" transform="translate(-255.997 -42.667)" fill="#5628b4"/>
    <path id="Path_73" data-name="Path 73" d="M385.489,42.667h2.984a1.492,1.492,0,0,1,1.492,1.492h0a1.492,1.492,0,0,1-1.492,1.492h-2.984A1.492,1.492,0,0,1,384,44.159h0A1.492,1.492,0,0,1,385.489,42.667Z" transform="translate(-366.09 -42.667)" fill="#5628b4"/>
  </g>
  <path id="Path_74" data-name="Path 74" d="M45.652,85.337h2.985a2.984,2.984,0,0,1,2.985,2.985v2.985a2.984,2.984,0,0,1-2.985,2.985H45.652a2.984,2.984,0,0,1-2.985-2.985V88.322A2.984,2.984,0,0,1,45.652,85.337Z" transform="translate(-36.698 -73.398)" fill="#f7b236"/>
  <g id="Group_86" data-name="Group 86" transform="translate(5.969 50.738)">
    <path id="Path_75" data-name="Path 75" d="M44.159,362.667h5.969a1.492,1.492,0,0,1,1.492,1.492h0a1.492,1.492,0,0,1-1.492,1.492H44.159a1.492,1.492,0,0,1-1.492-1.492h0A1.492,1.492,0,0,1,44.159,362.667Z" transform="translate(-42.667 -362.667)" fill="#815ec7"/>
    <path id="Path_76" data-name="Path 76" d="M44.159,405.337h2.985a1.492,1.492,0,0,1,1.492,1.492h0a1.492,1.492,0,0,1-1.492,1.492H44.159a1.492,1.492,0,0,1-1.492-1.492h0A1.492,1.492,0,0,1,44.159,405.337Z" transform="translate(-42.667 -399.367)" fill="#815ec7"/>
  </g>
  <g id="Group_87" data-name="Group 87" transform="translate(5.969 11.939)">
    <path id="Path_77" data-name="Path 77" d="M45.652,277.337h2.985a2.985,2.985,0,0,1,2.985,2.984v2.985a2.984,2.984,0,0,1-2.985,2.985H45.652a2.984,2.984,0,0,1-2.985-2.985v-2.985A2.984,2.984,0,0,1,45.652,277.337Z" transform="translate(-42.667 -250.476)" fill="#f7b236"/>
    <path id="Path_78" data-name="Path 78" d="M365.651,85.337h2.985a2.984,2.984,0,0,1,2.984,2.985v2.985a2.984,2.984,0,0,1-2.984,2.985h-2.985a2.985,2.985,0,0,1-2.985-2.985V88.322A2.985,2.985,0,0,1,365.651,85.337Z" transform="translate(-317.899 -85.337)" fill="#f7b236"/>
    <path id="Path_79" data-name="Path 79" d="M365.651,170.667h2.985a2.984,2.984,0,0,1,2.984,2.984v2.985a2.984,2.984,0,0,1-2.984,2.985h-2.985a2.985,2.985,0,0,1-2.985-2.985v-2.985A2.985,2.985,0,0,1,365.651,170.667Z" transform="translate(-317.899 -158.729)" fill="#f7b236"/>
    <path id="Path_80" data-name="Path 80" d="M365.651,256h2.985a2.984,2.984,0,0,1,2.984,2.984v2.985a2.984,2.984,0,0,1-2.984,2.984h-2.985a2.984,2.984,0,0,1-2.985-2.984v-2.985A2.984,2.984,0,0,1,365.651,256Z" transform="translate(-317.899 -232.121)" fill="#f7b236"/>
    <path id="Path_81" data-name="Path 81" d="M365.651,341.337h2.985a2.984,2.984,0,0,1,2.984,2.984v2.985a2.984,2.984,0,0,1-2.984,2.985h-2.985a2.985,2.985,0,0,1-2.985-2.985v-2.985A2.984,2.984,0,0,1,365.651,341.337Z" transform="translate(-317.899 -305.522)" fill="#f7b236"/>
  </g>
  <path id="Path_82" data-name="Path 82" d="M100.866,42.667a1.492,1.492,0,0,0-1.492,1.492h0v52.23a2.984,2.984,0,0,1-2.985,2.985H44.159a1.492,1.492,0,0,0,0,2.985h52.23a5.969,5.969,0,0,0,5.969-5.969V44.159a1.492,1.492,0,0,0-1.492-1.492Z" transform="translate(-36.698 -36.698)" fill="#e0d5f1"/>
  <g id="Group_88" data-name="Group 88" transform="translate(2.985 2.985)">
    <path id="Path_83" data-name="Path 83" d="M43.718,21.334h-19.4a2.984,2.984,0,0,0-2.985,2.985V37.749a1.492,1.492,0,1,0,2.985,0V25.811a1.492,1.492,0,0,1,1.492-1.492H43.718a1.492,1.492,0,0,0,0-2.985Z" transform="translate(-21.334 -21.334)" fill="#f9f6fc"/>
    <path id="Path_84" data-name="Path 84" d="M214.829,21.334H220.8a1.492,1.492,0,0,1,1.492,1.492h0a1.492,1.492,0,0,1-1.492,1.492h-5.969a1.492,1.492,0,0,1-1.492-1.492h0A1.492,1.492,0,0,1,214.829,21.334Z" transform="translate(-186.476 -21.334)" fill="#f9f6fc"/>
  </g>
</svg>
