<svg xmlns="http://www.w3.org/2000/svg" width="64.553" height="65.658" viewBox="0 0 64.553 65.658">
  <g id="icon2" transform="translate(-3 -2.007)">
    <g id="Investment-Global-World-Online_Banking-Map" data-name="Investment-Global-World-Online Banking-Map" transform="translate(2.999 2.007)">
      <path id="Path_197" data-name="Path 197" d="M16.471,23.506V22.412a3.282,3.282,0,1,0,0-6.565H14.282a1.094,1.094,0,1,1,0-2.188h2.188a1.094,1.094,0,0,1,1.094,1.094h2.188a3.282,3.282,0,0,0-3.282-3.282V10.376H14.282v1.094a3.282,3.282,0,0,0,0,6.565h2.188a1.094,1.094,0,0,1,0,2.188H14.282a1.094,1.094,0,0,1-1.094-1.094H11a3.282,3.282,0,0,0,3.282,3.282v1.094Zm40.482-7.659H54.764a1.094,1.094,0,0,1-1.094-1.094H51.482a3.282,3.282,0,0,0,3.282,3.282v1.094h2.188V18.035a3.282,3.282,0,1,0,0-6.565H54.764a1.094,1.094,0,0,1,0-2.188h2.188a1.094,1.094,0,0,1,1.094,1.094h2.188a3.282,3.282,0,0,0-3.282-3.282V6H54.764V7.094a3.282,3.282,0,0,0,0,6.565h2.188a1.094,1.094,0,0,1,0,2.188Z" transform="translate(-2.247 -1.631)" fill="#02f412"/>
      <path id="Path_198" data-name="Path 198" d="M67.552,12.94A10.941,10.941,0,0,0,47.508,6.879,31.4,31.4,0,0,0,34.729,4.188a31.865,31.865,0,0,0-13.95,3.239A10.918,10.918,0,0,0,5.188,17.317a11.178,11.178,0,0,0,1.193,4.365A31.729,31.729,0,1,0,66.458,35.917,31.359,31.359,0,0,0,63.428,22.4C65.616,19.166,67.552,15.566,67.552,12.94ZM56.611,4.188a8.765,8.765,0,0,1,8.753,8.753c0,3.742-5.722,11.2-8.753,14.749-3.031-3.545-8.753-11.007-8.753-14.749A8.765,8.765,0,0,1,56.611,4.188ZM16.129,8.564a8.765,8.765,0,0,1,8.753,8.753c0,3.742-5.722,11.2-8.753,14.749C13.1,28.521,7.376,21.059,7.376,17.317A8.765,8.765,0,0,1,16.129,8.564ZM5.188,35.917A29.63,29.63,0,0,1,7.65,24.122,56.174,56.174,0,0,0,12.18,30.7a1.067,1.067,0,0,0-.427.842v3.282a1.13,1.13,0,0,0,.317.777l5.153,5.142v2.385l-2.965,2.954a1.13,1.13,0,0,0-.317.777v2.834l-3.3,3.293A29.392,29.392,0,0,1,5.188,35.917ZM30.353,65.129a29.549,29.549,0,0,1-18.37-10.383l3.829-3.829a1.13,1.13,0,0,0,.317-.777V47.306l2.965-2.954a1.13,1.13,0,0,0,.317-.777V40.293a1.13,1.13,0,0,0-.317-.777l-5.153-5.142v-1.5c.678.8,1.171,1.357,1.379,1.586a1.089,1.089,0,0,0,1.619,0C17.978,33.3,27.07,23.006,27.07,17.317A10.941,10.941,0,0,0,22.989,8.8a30.133,30.133,0,0,1,7.363-2.09v7.32a1.13,1.13,0,0,0,.317.777l4.376,4.376a1.13,1.13,0,0,0,.777.317h5.022L45.67,24.33V30l-1.3,1.291a11.311,11.311,0,0,0-1.98-1.915v-4.4a1.094,1.094,0,0,0-1.094-1.094H34.729a1.094,1.094,0,0,0-1.094,1.094v2.188a1.549,1.549,0,0,0,.044.219,10.95,10.95,0,0,0-8.8,10.722,9.433,9.433,0,0,0,.711,3.217l-3.676,3.665a1.13,1.13,0,0,0-.317.777v3.282a1.13,1.13,0,0,0,.317.777l2.188,2.188a1.13,1.13,0,0,0,.777.317h3.282v3.282a1.13,1.13,0,0,0,.317.777l1.871,1.86ZM44.576,38.1c0,3.742-5.722,11.2-8.753,14.749C32.793,49.309,27.07,41.847,27.07,38.1a8.753,8.753,0,0,1,17.506,0Zm-8.753-11.39V26.07H40.2v2.013a11.022,11.022,0,0,0-3.9-.9ZM34.729,61.081v4.376c-.733,0-1.466-.033-2.188-.088V57.8a1.13,1.13,0,0,0-.317-.777l-1.871-1.86V51.234a1.094,1.094,0,0,0-1.094-1.094H25.331L23.788,48.6V46.212l2.757-2.757A65.155,65.155,0,0,0,35.014,55.25a1.089,1.089,0,0,0,1.619,0c.208-.23.7-.788,1.379-1.586V57.35L35.047,60.3a1.13,1.13,0,0,0-.317.777Zm18.6-2.232A29.424,29.424,0,0,1,36.917,65.37V61.53l2.965-2.954A1.13,1.13,0,0,0,40.2,57.8V53.871l1.871-1.86a1.13,1.13,0,0,0,.317-.777V47.941a29.362,29.362,0,0,0,3.993-7.571l1.477,1.466v5.022a1.13,1.13,0,0,0,.317.777l5.153,5.142ZM64.27,35.917A29.432,29.432,0,0,1,55.517,56.88V52.328a1.13,1.13,0,0,0-.317-.777l-5.153-5.142V41.387a1.13,1.13,0,0,0-.317-.777l-2.987-2.987a10.91,10.91,0,0,0-1.072-4.256v-.284l1.871-1.86a1.13,1.13,0,0,0,.317-.777V23.882a1.13,1.13,0,0,0-.317-.777l-5.471-5.471a1.13,1.13,0,0,0-.777-.317H36.272l-3.731-3.731V6.463c.733-.055,1.455-.088,2.188-.088A29.362,29.362,0,0,1,46.48,8.816a11,11,0,0,0-.81,4.125c0,5.689,9.092,15.985,10.131,17.145a1.089,1.089,0,0,0,1.619,0c.46-.5,2.451-2.757,4.551-5.613A29.287,29.287,0,0,1,64.27,35.917Z" transform="translate(-2.999 -2.007)"/>
      <path id="Path_199" data-name="Path 199" d="M34.471,42.129V41.035a3.282,3.282,0,1,0,0-6.565H32.282a1.094,1.094,0,0,1,0-2.188h2.188a1.094,1.094,0,0,1,1.094,1.094h2.188a3.282,3.282,0,0,0-3.282-3.282V29H32.282v1.094a3.282,3.282,0,1,0,0,6.565h2.188a1.094,1.094,0,0,1,0,2.188H32.282a1.094,1.094,0,0,1-1.094-1.094H29a3.282,3.282,0,0,0,3.282,3.282v1.094Z" transform="translate(-0.553 0.533)" fill="#02f412"/>
    </g>
  </g>
</svg>
